<svg xmlns="http://www.w3.org/2000/svg" viewBox="0 0 512 512">
  <path d="M245.89281462 2.62306992c-8.56137.515267-15.49767 1.109807-21.00707 1.783619-39.43782 4.835592-76.37857 18.510011-109.39536 40.507989-35.949845 23.940143-65.320116 56.798383-85.058843 95.205653-15.656218 30.48009-24.376138 61.39617-27.348838 97.1082-.673811 7.64975-.673811 30.00445 0 37.6542 2.9727 35.71203 11.69262 66.62811 27.348838 97.10819 24.177959 47.04793 62.585243 85.4552 109.633163 109.63317 30.48008 15.65622 61.39617 24.37613 97.1082 27.34884 7.64974.6738 30.00445.6738 37.65419 0 35.71203-2.97271 66.62812-11.69262 97.1082-27.34884 47.04793-24.17797 85.4552-62.58524 109.63317-109.63317 15.65622-30.48008 24.37613-61.39616 27.34884-97.10819.6738-7.64975.6738-30.00445 0-37.6542-2.97271-35.71203-11.69262-66.62811-27.34884-97.1082-24.17797-47.04792-62.58524-85.455197-109.63317-109.633156-29.84591-15.33913-60.68271-24.177957-94.73004-27.111021-6.5003-.59454-26.39756-1.070172-31.31244-.753084zm29.29101 30.876442c51.92316 4.439231 99.84307 26.595754 137.2991 63.377949 38.84327 38.16947 61.87178 87.59555 66.31101 142.33287.59455 7.64975.59455 26.04085 0 33.69059-4.35995 53.5086-26.3183 101.74561-63.61577 139.63763-38.24874 38.88291-87.43701 61.79252-142.33287 66.31101-7.64975.63418-26.04084.63418-33.69059 0-54.93549-4.51849-104.1634-27.4281-142.33287-66.27137-37.376742-38.0902-59.176541-85.89121-63.615773-139.67727-.634176-7.64974-.634176-26.04084 0-33.69059 4.55814-55.01477 27.467747-104.1634 66.271383-142.33287 34.8004-34.166219 78.79637-55.807475 126.3992-62.149233 16.48857-2.179981 32.97715-2.615977 49.30718-1.228716z" fill="#4787d0"/>
  <path d="M453.70062358 290.37557206l-59.5385639-34.375577 59.5385639-34.37557699c9.01181935-5.2037278 12.09940778-16.725129 6.89567125-25.73613583l-50.24097387-87.01765713c-5.2021115-9.01181672-16.72675405-12.0969807-25.73614457-6.89567474l-59.53936768 34.37233915V67.59775708c.00080378-10.40666054-8.43461656-18.8404672-18.83884829-18.8404672H205.75900394c-10.4050355 0-18.84046459 8.43380666-18.84046459 18.8404672v68.75196126l-59.5385639-34.37638689c-4.32699393-2.49986572-9.47568013-3.1742134-14.29569817-1.88137563-4.82648323 1.29283865-8.94138358 4.45005032-11.43963387 8.777053L51.40366866 195.8866572c-5.20373478 9.01101556-2.11614198 20.53322056 6.89567736 25.73614457l59.53775488 34.3771933-59.53775488 34.37314817c-4.32700092 2.49662525-7.48421434 6.61395442-8.77867104 11.43882136-1.29283865 4.82810827-.61525225 9.97032054 1.88299368 14.2973232l50.24097475 87.02007721c2.49825029 4.32700267 6.61395442 7.48502687 11.4388301 8.77705387 4.82972457 1.2936433 9.9703118.6176802 14.29731446-1.88137388l59.5385639-34.37233566v68.74952895c0 10.40584802 8.43542035 18.84046459 18.84046459 18.84046459h100.48114396c10.4050355 0 18.84046459-8.43380405 18.84046459-18.84046459v-68.74952895l59.53775138 34.37313944c9.00939052 5.20373653 20.53240804 2.11533558 25.73614457-6.89567125l50.24178639-87.0184609c2.49824155-4.32700268 3.17502593-9.46921494 1.88299018-14.29732321-1.29445582-4.82405442-4.45085498-8.94138359-8.77947395-11.43882136z" fill="#4787d0"/>
  <path d="M205.75900014 48.75729823c-10.40503225 0-18.84045685 8.43380652-18.84045685 18.8404668v68.75196285L127.3799716 101.973339c-4.3269934-2.49986858-9.47567304-3.17421143-14.29569626-1.8813769-4.82648287 1.29283453-8.94138275 4.4500521-11.43963416 8.77705454l-50.24097283 87.0176477c-5.2021159 9.01101151-2.11533297 20.53322084 6.89567764 25.73614352l59.53775408 34.37719296-59.53775408 34.3731455c-4.32700063 2.4966252-7.48421458 6.61395536-8.7786708 11.43882106-1.29283905 4.82810907-.61525282 9.97032003 1.88299316 14.29732247l50.24097283 87.02007797c2.4982514 4.32700244 6.61395536 7.48503311 11.43963416 8.77705454 4.82972625 1.29364764 9.97032003.61767858 14.29732247-1.88136786l59.53774956-34.37234144v68.7495344c0 10.40584535 8.4354246 18.84045684 18.84046589 18.84045684h50.24017327V48.75729823z" fill="#1657a1"/>
  <g fill="#fff">
    <path d="M299.21816564 93.28280816c-1.94844062-.50302626-27.91786758-.40488603-29.75060424.1124792-4.08895433 1.121917-6.88797088 4.60553646-7.10220902 8.71080938-.20590616 4.23446466-.14135153 82.75631997.05672853 84.28033599.49296758 3.31122598 3.70119427 6.94629466 6.94859532 7.78467176 1.6458194.4526891 27.1379067.53502138 29.57588581.11833047 3.1377965-.55163672 6.47857591-3.68100883 7.31214255-6.84826635.20839166-.79181438.40246865-20.3734659.40748823-43.50548504.0180939-34.0700229-.1048136-42.47452902-.64494219-44.19602683-.9654968-3.210897-3.53773105-5.6495668-6.80308499-6.45684858zM248.8166307 100.29550086c-8.98827419.20047314-13.71579885.70494887-19.21753034 2.04770929-16.11280879 3.92314182-24.5713584 12.18255105-34.62987967 33.69768166-14.36180614 30.76392842-22.4429802 78.29693593-21.57342017 127.0589114.82506936 45.75113818 9.12986428 88.02613767 22.89371912 116.5370732 7.08275805 14.66164035 12.7481133 21.58105188 22.13889993 27.00282466 6.28125464 3.62648378 12.223384 5.3987565 21.44693297 6.37062994 4.3181297.4200519 14.67107645.80017065 15.2022748.52641218.2010033-.13271325.40677803-82.35431337.23344095-86.43459038-.00704302-.41867054-.38499732-.5539617-1.58715027-.6261186-2.77392823-.1504132-6.92919297-1.13980178-9.89415824-2.39556047-10.88628524-4.62678223-19.54503076-17.42047082-23.99386978-35.49520801-5.5120869-22.337121-4.23172145-49.8324512 3.33015157-70.75746141 5.5241738-15.38488745 13.90198161-25.51517168 24.07678082-29.13518641 1.72630827-.62027211 6.84750756-1.51936608 7.65727483-1.34206974.30262123.05033716.45142445-16.36500045.48634281-43.21119578-.01868738-23.80907316-.04708809-43.43625138-.0996578-43.63244422-.03461684-.22728816-2.94254727-.28922587-6.47015154-.21140731zM300.39014772 318.17743112c-1.83591283-.76974171-1.48424339-.73254698-16.68428562-.7601451-6.78720414-.02131387-13.10316802.14652207-14.01713112.36513292-3.47761245.852969-6.49300729 3.92143942-7.140002 7.19641428-.36902407 1.85996513-.45746055 83.73470627-.08500739 86.10568429.59200762 4.07323399 4.49171971 7.44416512 9.02399514 7.78055198 3.41026601.26904042 25.32217931.23299842 27.1895328-.05707865 2.54921797-.39392756 4.9529256-2.1156783 6.42506258-4.66549454.66425693-1.15052684 1.2987075-2.60848537 1.3503336-3.2005854.37899032-3.09802386.14075327-84.62238451-.24870917-86.17397434-.74782956-3.08522677-2.75072713-5.36103161-5.81378882-6.59050544z"/>
  </g>
</svg>